<svg xmlns="http://www.w3.org/2000/svg" width="21" height="20" viewBox="0 0 21 20" data-ember-extension="1">
    <script xmlns="" id="ember-inspector-boot-13634399">
  window.EmberENV = { _DEBUG_RENDER_TREE: true };
  document.getElementById("ember-inspector-boot-13634399").remove();
    </script>
    <path fill-rule="evenodd" d="M21.5698963,47.092878 C21.9677039,47.092878 22.2906648,46.7699266 22.2906648,46.3721307 L22.2906648,45.7674809 L29.6869401,45.7674809 L29.6869401,46.3721307 C29.6869401,46.7699266 30.009901,47.092878 30.4077086,47.092878 C30.8049269,47.092878 31.1284771,46.7699266 31.1284771,46.3721307 L31.1284771,45.7674809 L33.9537954,45.7674809 C34.2873645,45.7674809 34.558463,46.0385715 34.558463,46.3721307 L34.558463,48.744173 L17.441537,48.744173 L17.441537,46.3721307 C17.441537,46.0385715 17.7126355,45.7674809 18.0462046,45.7674809 L20.8491278,45.7674809 L20.8491278,46.3721307 C20.8491278,46.7699266 21.1720886,47.092878 21.5698963,47.092878 L21.5698963,47.092878 Z M34.558463,50.1856676 L34.558463,60.9538557 C34.558463,61.2868256 34.2873645,61.5585055 33.9537954,61.5585055 L18.0462046,61.5585055 C17.7126355,61.5585055 17.441537,61.2868256 17.441537,60.9538557 L17.441537,50.1856676 L34.558463,50.1856676 Z M33.9537954,44.3253971 L31.1284771,44.3253971 L31.1284771,43.7207473 C31.1284771,43.3235407 30.8049269,43 30.4077086,43 C30.009901,43 29.6869401,43.3235407 29.6869401,43.7207473 L29.6869401,44.3253971 L22.2906648,44.3253971 L22.2906648,43.7207473 C22.2906648,43.3235407 21.9677039,43 21.5698963,43 C21.1720886,43 20.8491278,43.3235407 20.8491278,43.7207473 L20.8491278,44.3253971 L18.0462046,44.3253971 C16.9176096,44.3253971 16,45.243569 16,46.3721307 L16,60.9538557 C16,62.0824174 16.9176096,63 18.0462046,63 L33.9537954,63 C35.081801,63 36,62.0824174 36,60.9538557 L36,46.3721307 C36,45.243569 35.081801,44.3253971 33.9537954,44.3253971 L33.9537954,44.3253971 Z" transform="translate(-15.667 -43)"/>
</svg>