<svg xmlns="http://www.w3.org/2000/svg" xmlns:xlink="http://www.w3.org/1999/xlink" width="18px" height="26px" viewBox="0 0 18 26" version="1.1" data-ember-extension="1"><script xmlns="" id="ember-inspector-boot-46479403">
  window.EmberENV = { _DEBUG_RENDER_TREE: true };
  document.getElementById("ember-inspector-boot-46479403").remove();
</script>
    <!-- Generator: Sketch 50.2 (55047) - http://www.bohemiancoding.com/sketch -->
    <title>location_icon</title>
    <desc>Created with Sketch.</desc>
    <defs/>
    <g id="Test-variants-07/2018" stroke="none" stroke-width="1" fill="none" fill-rule="evenodd">
        <g id="Homepage_IBE_Test-V2" transform="translate(-334.000000, -209.000000)" fill="#111119">
            <g id="header">
                <g id="IBE-Copy" transform="translate(0.000000, 110.000000)">
                    <g id="ibe" transform="translate(318.000000, 58.000000)">
                        <g id="location">
                            <g id="location_icon" transform="translate(16.000000, 41.000000)">
                                <path d="M8.58681622,25.6035351 C6.53281622,25.6035351 -0.000210810811,15.8935892 -0.000210810811,9.28958919 C-0.000210810811,4.55477838 3.85200541,0.702562162 8.58681622,0.702562162 C13.321627,0.702562162 17.1738432,4.55477838 17.1738432,9.28958919 C17.1738432,15.8935892 10.6408162,25.6035351 8.58681622,25.6035351 Z M8.58681622,2.42137297 C4.79924865,2.42137297 1.7186,5.50202162 1.7186,9.28958919 C1.7186,15.265373 7.15470811,22.6809946 8.58681622,23.7975892 C10.0189243,22.6816973 15.4550324,15.2660757 15.4550324,9.28958919 C15.4550324,5.50202162 12.3743838,2.42137297 8.58681622,2.42137297 Z M8.58681622,14.5642162 C5.67832973,14.5642162 3.31162703,12.1982162 3.31162703,9.28972973 C3.31162703,6.38124324 5.67832973,4.01454054 8.58681622,4.01454054 C11.4953027,4.01454054 13.8620054,6.38124324 13.8620054,9.28972973 C13.8620054,12.1982162 11.4953027,14.5642162 8.58681622,14.5642162 Z M8.58681622,5.73335135 C6.62557297,5.73335135 5.03043784,7.32848649 5.03043784,9.28972973 C5.03043784,11.2502703 6.62557297,12.8454054 8.58681622,12.8454054 C10.5480595,12.8454054 12.1431946,11.2502703 12.1431946,9.28972973 C12.1431946,7.32848649 10.5480595,5.73335135 8.58681622,5.73335135 Z"/>
                            </g>
                        </g>
                    </g>
                </g>
            </g>
        </g>
    </g>
</svg>