<svg xmlns="http://www.w3.org/2000/svg" xmlns:xlink="http://www.w3.org/1999/xlink" version="1.1" id="Ebene_1" x="0px" y="0px" viewBox="0 0 141.7 53" style="enable-background:new 0 0 141.7 53;" xml:space="preserve" data-ember-extension="1"><script xmlns="" id="ember-inspector-boot-11233036">
  window.EmberENV = { _DEBUG_RENDER_TREE: true };
  document.getElementById("ember-inspector-boot-11233036").remove();
</script>
<style type="text/css">
	.st0{fill:#FFFFFF;}
	.st1{fill:#F47C22;}
</style>
<g id="Layer_1">
</g>
<g>
	<g>
		<path class="st0" d="M91,13.3l-5.5,8.4c0,0,0,0-0.1,0C85,21.2,82.5,18,82.5,18c-3,2.3-6.4,3.9-10.1,5c0,0,4.5,5.8,4.5,5.9V29    c-0.7,1-9.7,14.3-9.7,14.4h-0.1c0-10.4,0-19.1,0-19.1c-3.1,0.4-6,0.6-9,0.6c-0.9,0-1.9,0-2.8,0v7.7c0,0-0.1,0.1-0.1,0    c-0.4-1.1-1-2-1.6-2.6c-3.8-4-16.8-5.5-18.7-7.6c-0.4-0.4-0.5-1-0.5-1.5c0-1.7,1.1-2.8,3.9-2.9c2.1-0.1,3.8,0.9,4.2,4.9h11.6    c0-0.4-0.1-1.1-0.2-1.5c-0.6-5.9-3.6-9.5-14.9-9.5c-6.9,0-11.7,1.2-14.4,3.9c-1.6,1.5-2.5,3.7-2.5,6.5c0,1.9,0.5,4.2,2,5.8    c1.7,1.8,5.3,3,8.9,4.1c4.5,1.3,9.1,2.4,10,3.5c0.3,0.4,0.5,1,0.5,1.6c0,2.6-2.6,3.4-5.2,3.4c-1.6,0-2.7-0.4-3.5-1.3    c-0.7-0.9-1.2-2.2-1.2-4.1H21.8c0.1,3.6,0.6,6.4,2.8,8.3c2.3,2,6.4,3.2,13.5,3.2c10.3,0,15.4-2.8,17.1-7.2h0.1v6.3h22.9l6.5-9.3    c0,0,0,0,0.1,0c0.5,0.8,6.2,9.3,6.2,9.3h24.4V22.7l0,0c0.7,0,7,0,7,0v-9.4L91,13.3L91,13.3z M103.7,43.4    C103.7,43.4,103.6,43.4,103.7,43.4c-0.1,0-10.3-14.2-10.3-14.2s0,0,0-0.1c0.4-0.5,4.4-6.2,4.5-6.3H98h5.8l0,0c0,1.1,0,20.4,0,20.4    L103.7,43.4z"/>
		<path class="st1" d="M80.4,17.2C75,20.9,67.5,23,57.9,22.9c-0.8,0-1.7,0-2.5-0.1v-9.4C64.1,14,70,12.5,73.6,9.8    c1.4-1,2.4-2.2,3.1-3.5h12.1C87.2,10.7,84.4,14.4,80.4,17.2L80.4,17.2z"/>
	</g>
</g>
</svg>